<svg width="713.707" height="80.606" viewBox="0 0 713.707 80.606" xmlns="http://www.w3.org/2000/svg"><g id="svgGroup" stroke-linecap="round" fill-rule="evenodd" font-size="9pt" stroke="#000000" stroke-width="0.1mm" fill="none" style="stroke:#000000;stroke-width:0.1mm;fill:none"><path d="M 209.605 17.805 L 209.605 1.405 L 242.405 1.405 L 242.405 17.805 L 237.405 17.805 L 237.405 79.205 L 209.305 79.205 L 180.005 34.105 L 180.005 62.805 L 184.805 62.805 L 184.805 79.205 L 152.005 79.205 L 152.005 62.805 L 157.005 62.805 L 157.005 17.805 L 152.005 17.805 L 152.005 1.405 L 188.105 1.405 L 214.405 41.505 L 214.405 17.805 L 209.605 17.805 Z M 575.605 51.305 L 575.605 17.805 L 570.605 17.805 L 570.605 1.405 L 607.605 1.405 L 607.605 17.805 L 603.605 17.805 L 603.605 56.405 Q 603.605 58.422 604.147 59.785 A 4.622 4.622 0 0 0 605.055 61.255 Q 606.319 62.606 608.684 62.779 A 9.858 9.858 0 0 0 609.405 62.805 Q 611.432 62.805 612.75 62.048 A 4.295 4.295 0 0 0 613.755 61.255 A 4.704 4.704 0 0 0 614.721 59.635 Q 615.205 58.313 615.205 56.405 L 615.205 17.805 L 611.205 17.805 L 611.205 1.405 L 645.505 1.405 L 645.505 17.805 L 640.505 17.805 L 640.505 51.305 Q 640.505 61.123 637.175 67.49 A 20.072 20.072 0 0 1 632.205 73.705 Q 625.583 79.21 614.378 80.323 A 60.488 60.488 0 0 1 608.405 80.605 A 57.438 57.438 0 0 1 599.081 79.897 Q 589.967 78.395 584.155 73.705 A 21.188 21.188 0 0 1 577.484 63.946 Q 575.605 58.57 575.605 51.305 Z M 69.005 7.405 L 69.005 32.405 L 45.005 32.405 L 45.005 25.205 A 13.497 13.497 0 0 0 44.863 23.175 Q 44.705 22.137 44.37 21.307 A 5.371 5.371 0 0 0 43.305 19.605 A 5.344 5.344 0 0 0 41.019 18.2 Q 40.161 17.922 39.119 17.84 A 11.576 11.576 0 0 0 38.205 17.805 A 10.208 10.208 0 0 0 36.258 17.978 Q 35.152 18.194 34.298 18.676 A 5.031 5.031 0 0 0 33.105 19.605 A 5.495 5.495 0 0 0 31.951 21.542 Q 31.644 22.391 31.51 23.444 A 13.949 13.949 0 0 0 31.405 25.205 L 31.405 55.405 A 13.497 13.497 0 0 0 31.548 57.434 Q 31.706 58.472 32.041 59.303 A 5.371 5.371 0 0 0 33.105 61.005 A 5.344 5.344 0 0 0 35.392 62.409 Q 36.249 62.687 37.292 62.77 A 11.576 11.576 0 0 0 38.205 62.805 A 10.208 10.208 0 0 0 40.153 62.631 Q 41.259 62.416 42.113 61.934 A 5.031 5.031 0 0 0 43.305 61.005 A 5.495 5.495 0 0 0 44.46 59.068 Q 44.767 58.218 44.901 57.165 A 13.949 13.949 0 0 0 45.005 55.405 L 45.005 47.305 L 69.005 47.305 L 69.005 73.205 A 24.957 24.957 0 0 1 65.89 74.988 Q 62.264 76.759 56.855 78.305 Q 48.805 80.605 39.405 80.605 Q 20.505 80.605 10.255 71.005 A 28.968 28.968 0 0 1 2.984 59.711 Q 0.005 51.679 0.005 40.305 A 59.887 59.887 0 0 1 1.881 24.602 Q 8.58 0.005 39.205 0.005 A 69.014 69.014 0 0 1 50.823 0.949 A 58.298 58.298 0 0 1 56.855 2.305 Q 64.401 4.434 68.389 6.992 A 18.345 18.345 0 0 1 69.005 7.405 Z M 459.205 7.405 L 459.205 32.405 L 435.205 32.405 L 435.205 25.205 A 13.497 13.497 0 0 0 435.063 23.175 Q 434.905 22.137 434.57 21.307 A 5.371 5.371 0 0 0 433.505 19.605 A 5.344 5.344 0 0 0 431.219 18.2 Q 430.361 17.922 429.319 17.84 A 11.576 11.576 0 0 0 428.405 17.805 A 10.208 10.208 0 0 0 426.458 17.978 Q 425.352 18.194 424.498 18.676 A 5.031 5.031 0 0 0 423.305 19.605 A 5.495 5.495 0 0 0 422.151 21.542 Q 421.844 22.391 421.71 23.444 A 13.949 13.949 0 0 0 421.605 25.205 L 421.605 55.405 A 13.497 13.497 0 0 0 421.748 57.434 Q 421.906 58.472 422.241 59.303 A 5.371 5.371 0 0 0 423.305 61.005 A 5.344 5.344 0 0 0 425.592 62.409 Q 426.449 62.687 427.492 62.77 A 11.576 11.576 0 0 0 428.405 62.805 A 10.208 10.208 0 0 0 430.353 62.631 Q 431.459 62.416 432.313 61.934 A 5.031 5.031 0 0 0 433.505 61.005 A 5.495 5.495 0 0 0 434.66 59.068 Q 434.967 58.218 435.101 57.165 A 13.949 13.949 0 0 0 435.205 55.405 L 435.205 47.305 L 459.205 47.305 L 459.205 73.205 A 24.957 24.957 0 0 1 456.09 74.988 Q 452.464 76.759 447.055 78.305 Q 439.005 80.605 429.605 80.605 Q 410.705 80.605 400.455 71.005 A 28.968 28.968 0 0 1 393.184 59.711 Q 390.205 51.679 390.205 40.305 A 59.887 59.887 0 0 1 392.081 24.602 Q 398.78 0.005 429.405 0.005 A 69.014 69.014 0 0 1 441.023 0.949 A 58.298 58.298 0 0 1 447.055 2.305 Q 454.601 4.434 458.589 6.992 A 18.345 18.345 0 0 1 459.205 7.405 Z M 648.805 75.205 L 648.805 55.405 L 670.805 55.405 Q 670.805 57.251 671.302 58.495 A 4.13 4.13 0 0 0 672.205 59.905 A 3.796 3.796 0 0 0 673.44 60.702 Q 674.616 61.195 676.455 61.285 A 17.472 17.472 0 0 0 677.305 61.305 Q 680.405 61.305 681.755 60.355 A 3.089 3.089 0 0 0 683.062 58.157 A 4.694 4.694 0 0 0 683.105 57.505 Q 683.105 55.905 681.805 54.755 Q 680.505 53.605 677.305 52.405 L 668.705 49.405 A 62.901 62.901 0 0 1 662.378 46.633 Q 656.09 43.423 652.755 39.505 A 19.366 19.366 0 0 1 648.834 31.827 Q 647.905 28.348 647.905 24.105 A 28.559 28.559 0 0 1 648.801 16.737 A 19.566 19.566 0 0 1 655.655 6.155 Q 662.596 0.647 677.838 0.072 A 97.313 97.313 0 0 1 681.505 0.005 A 76.853 76.853 0 0 1 692.972 0.832 A 66.083 66.083 0 0 1 697.855 1.755 A 57.245 57.245 0 0 1 703.153 3.22 Q 707.259 4.587 710.205 6.405 L 710.205 24.305 L 690.205 24.305 Q 690.205 19.766 685.096 19.347 A 13.375 13.375 0 0 0 684.005 19.305 Q 681.651 19.305 680.375 19.767 A 3.551 3.551 0 0 0 679.755 20.055 A 2.435 2.435 0 0 0 678.647 21.558 Q 678.524 21.999 678.508 22.537 A 5.547 5.547 0 0 0 678.505 22.705 A 3.178 3.178 0 0 0 678.857 24.209 Q 679.174 24.811 679.777 25.275 A 4.25 4.25 0 0 0 679.955 25.405 Q 681.405 26.405 684.705 27.505 L 693.405 30.505 A 52.234 52.234 0 0 1 699.743 33.099 Q 705.597 35.991 708.855 39.855 A 19.951 19.951 0 0 1 713.023 48.429 A 29.08 29.08 0 0 1 713.705 54.905 A 29.945 29.945 0 0 1 712.741 62.738 A 20.644 20.644 0 0 1 705.155 74.105 A 27.846 27.846 0 0 1 696.897 78.313 Q 693.017 79.584 688.275 80.15 A 69.067 69.067 0 0 1 680.105 80.605 A 99.739 99.739 0 0 1 666.848 79.752 A 86.426 86.426 0 0 1 661.955 78.955 Q 654.026 77.425 649.494 75.507 A 26.83 26.83 0 0 1 648.805 75.205 Z M 320.805 1.405 L 320.805 25.605 L 303.605 25.605 L 303.605 17.805 L 297.205 17.805 L 297.205 62.805 L 304.205 62.805 L 304.205 79.205 L 262.205 79.205 L 262.205 62.805 L 269.205 62.805 L 269.205 17.805 L 262.805 17.805 L 262.805 25.605 L 245.605 25.605 L 245.605 1.405 L 320.805 1.405 Z M 537.605 1.405 L 537.605 25.605 L 520.405 25.605 L 520.405 17.805 L 514.005 17.805 L 514.005 62.805 L 521.005 62.805 L 521.005 79.205 L 479.005 79.205 L 479.005 62.805 L 486.005 62.805 L 486.005 17.805 L 479.605 17.805 L 479.605 25.605 L 462.405 25.605 L 462.405 1.405 L 537.605 1.405 Z M 369.705 1.405 L 386.605 62.805 L 390.605 62.805 L 390.605 79.205 L 351.405 79.205 L 351.405 62.805 L 357.405 62.805 L 355.805 54.805 L 342.205 54.805 L 340.605 62.805 L 346.605 62.805 L 346.605 79.205 L 312.405 79.205 L 312.405 62.805 L 316.405 62.805 L 333.305 1.405 L 369.705 1.405 Z M 99.295 79.571 A 56.03 56.03 0 0 0 110.405 80.605 A 65.361 65.361 0 0 0 113.835 80.517 Q 119.824 80.202 124.834 78.763 A 32.392 32.392 0 0 0 138.655 71.005 A 28.173 28.173 0 0 0 144.974 61.602 Q 146.915 57.032 147.818 51.264 A 70.996 70.996 0 0 0 148.605 40.305 A 73.291 73.291 0 0 0 148.02 30.741 Q 147.266 25.028 145.544 20.435 A 28.845 28.845 0 0 0 138.655 9.605 A 30.221 30.221 0 0 0 133.362 5.527 Q 128.212 2.394 121.516 1.038 A 56.03 56.03 0 0 0 110.405 0.005 A 65.361 65.361 0 0 0 106.975 0.093 Q 100.987 0.408 95.977 1.846 A 32.392 32.392 0 0 0 82.155 9.605 A 28.173 28.173 0 0 0 75.837 19.008 Q 73.896 23.577 72.993 29.346 A 70.996 70.996 0 0 0 72.205 40.305 A 73.291 73.291 0 0 0 72.791 49.868 Q 73.545 55.581 75.267 60.174 A 28.845 28.845 0 0 0 82.155 71.005 A 30.221 30.221 0 0 0 87.449 75.082 Q 92.599 78.216 99.295 79.571 Z M 117.205 55.405 L 117.205 25.205 A 13.497 13.497 0 0 0 117.063 23.175 Q 116.905 22.137 116.57 21.307 A 5.371 5.371 0 0 0 115.505 19.605 A 5.344 5.344 0 0 0 113.219 18.2 Q 112.361 17.922 111.319 17.84 A 11.576 11.576 0 0 0 110.405 17.805 A 10.208 10.208 0 0 0 108.458 17.978 Q 107.352 18.194 106.498 18.676 A 5.031 5.031 0 0 0 105.305 19.605 A 5.495 5.495 0 0 0 104.151 21.542 Q 103.844 22.391 103.71 23.444 A 13.949 13.949 0 0 0 103.605 25.205 L 103.605 55.405 A 14.136 14.136 0 0 0 103.74 57.428 Q 103.888 58.446 104.197 59.259 A 5.192 5.192 0 0 0 105.305 61.055 A 5.339 5.339 0 0 0 107.511 62.394 Q 108.368 62.676 109.414 62.765 A 11.796 11.796 0 0 0 110.405 62.805 A 10.208 10.208 0 0 0 112.353 62.631 Q 113.459 62.416 114.313 61.934 A 5.031 5.031 0 0 0 115.505 61.005 A 5.495 5.495 0 0 0 116.66 59.068 Q 116.967 58.218 117.101 57.165 A 13.949 13.949 0 0 0 117.205 55.405 Z M 348.505 24.305 L 344.405 44.205 L 353.605 44.205 L 349.505 24.305 L 348.505 24.305 Z" vector-effect="non-scaling-stroke"/></g></svg>