<svg width="544.203" height="80.606" viewBox="0 0 544.203 80.606" xmlns="http://www.w3.org/2000/svg"><g id="svgGroup" stroke-linecap="round" fill-rule="evenodd" font-size="9pt" stroke="#000" stroke-width="0.25mm" fill="#ffffff" style="stroke:#000;stroke-width:0.25mm;fill:#ffffff"><path d="M 136.101 79.205 L 68.601 79.205 L 68.601 62.805 L 73.601 62.805 L 73.601 17.805 L 68.601 17.805 L 68.601 1.405 L 136.101 1.405 L 136.101 31.605 L 113.701 31.605 L 113.701 17.805 L 101.601 17.805 L 101.601 33.605 L 110.401 33.605 L 110.401 45.005 L 101.601 45.005 L 101.601 62.805 L 113.701 62.805 L 113.701 47.005 L 136.101 47.005 L 136.101 79.205 Z M 475.801 79.205 L 408.301 79.205 L 408.301 62.805 L 413.301 62.805 L 413.301 17.805 L 408.301 17.805 L 408.301 1.405 L 475.801 1.405 L 475.801 31.605 L 453.401 31.605 L 453.401 17.805 L 441.301 17.805 L 441.301 33.605 L 450.101 33.605 L 450.101 45.005 L 441.301 45.005 L 441.301 62.805 L 453.401 62.805 L 453.401 47.005 L 475.801 47.005 L 475.801 79.205 Z M 139.901 79.205 L 139.901 62.805 L 144.901 62.805 L 144.901 17.805 L 139.901 17.805 L 139.901 1.405 L 185.801 1.405 A 50.31 50.31 0 0 1 193.225 1.916 Q 197.019 2.483 200.088 3.68 A 21.378 21.378 0 0 1 205.501 6.705 Q 211.453 11.344 212.195 21.038 A 37.554 37.554 0 0 1 212.301 23.905 A 27.986 27.986 0 0 1 211.747 29.607 A 20.997 20.997 0 0 1 209.601 35.505 Q 206.901 40.405 201.901 42.305 L 202.001 43.305 A 13.61 13.61 0 0 1 206.396 44.708 Q 211.601 47.521 211.601 55.105 L 211.601 62.805 L 216.301 62.805 L 216.301 79.205 L 184.601 79.205 L 184.601 55.705 A 21.428 21.428 0 0 0 184.51 53.661 Q 184.301 51.479 183.608 50.096 A 5.758 5.758 0 0 0 183.451 49.805 A 5.631 5.631 0 0 0 180.479 47.314 A 7.552 7.552 0 0 0 179.851 47.105 A 14.406 14.406 0 0 0 178.12 46.736 Q 176.294 46.451 173.752 46.411 A 54.118 54.118 0 0 0 172.901 46.405 L 172.901 62.805 L 179.501 62.805 L 179.501 79.205 L 139.901 79.205 Z M 257.501 17.805 L 257.501 1.405 L 290.901 1.405 L 290.901 17.805 L 286.901 17.805 L 269.001 79.205 L 236.601 79.205 L 218.701 17.805 L 214.701 17.805 L 214.701 1.405 L 253.101 1.405 L 253.101 17.805 L 247.901 17.805 L 254.801 51.305 L 255.801 51.305 L 262.701 17.805 L 257.501 17.805 Z M 404.501 7.405 L 404.501 32.405 L 380.501 32.405 L 380.501 25.205 A 13.497 13.497 0 0 0 380.359 23.175 Q 380.201 22.137 379.866 21.307 A 5.371 5.371 0 0 0 378.801 19.605 A 5.344 5.344 0 0 0 376.515 18.2 Q 375.657 17.922 374.615 17.84 A 11.576 11.576 0 0 0 373.701 17.805 A 10.208 10.208 0 0 0 371.753 17.978 Q 370.647 18.194 369.793 18.676 A 5.031 5.031 0 0 0 368.601 19.605 A 5.495 5.495 0 0 0 367.447 21.542 Q 367.14 22.391 367.006 23.444 A 13.949 13.949 0 0 0 366.901 25.205 L 366.901 55.405 A 13.497 13.497 0 0 0 367.043 57.434 Q 367.202 58.472 367.536 59.303 A 5.371 5.371 0 0 0 368.601 61.005 A 5.344 5.344 0 0 0 370.887 62.409 Q 371.745 62.687 372.788 62.77 A 11.576 11.576 0 0 0 373.701 62.805 A 10.208 10.208 0 0 0 375.649 62.631 Q 376.755 62.416 377.609 61.934 A 5.031 5.031 0 0 0 378.801 61.005 A 5.495 5.495 0 0 0 379.956 59.068 Q 380.263 58.218 380.397 57.165 A 13.949 13.949 0 0 0 380.501 55.405 L 380.501 47.305 L 404.501 47.305 L 404.501 73.205 A 24.957 24.957 0 0 1 401.385 74.988 Q 397.76 76.759 392.351 78.305 Q 384.301 80.605 374.901 80.605 Q 356.001 80.605 345.751 71.005 A 28.968 28.968 0 0 1 338.48 59.711 Q 335.501 51.679 335.501 40.305 A 59.887 59.887 0 0 1 337.377 24.602 Q 344.076 0.005 374.701 0.005 A 69.014 69.014 0 0 1 386.319 0.949 A 58.298 58.298 0 0 1 392.351 2.305 Q 399.897 4.434 403.885 6.992 A 18.345 18.345 0 0 1 404.501 7.405 Z M 0.901 75.205 L 0.901 55.405 L 22.901 55.405 Q 22.901 57.251 23.398 58.495 A 4.13 4.13 0 0 0 24.301 59.905 A 3.796 3.796 0 0 0 25.536 60.702 Q 26.712 61.195 28.551 61.285 A 17.472 17.472 0 0 0 29.401 61.305 Q 32.501 61.305 33.851 60.355 A 3.089 3.089 0 0 0 35.158 58.157 A 4.694 4.694 0 0 0 35.201 57.505 Q 35.201 55.905 33.901 54.755 Q 32.601 53.605 29.401 52.405 L 20.801 49.405 A 62.901 62.901 0 0 1 14.474 46.633 Q 8.186 43.423 4.851 39.505 A 19.366 19.366 0 0 1 0.93 31.827 Q 0.001 28.348 0.001 24.105 A 28.559 28.559 0 0 1 0.896 16.737 A 19.566 19.566 0 0 1 7.751 6.155 Q 14.692 0.647 29.933 0.072 A 97.313 97.313 0 0 1 33.601 0.005 A 76.853 76.853 0 0 1 45.067 0.832 A 66.083 66.083 0 0 1 49.951 1.755 A 57.245 57.245 0 0 1 55.248 3.22 Q 59.355 4.587 62.301 6.405 L 62.301 24.305 L 42.301 24.305 Q 42.301 19.766 37.192 19.347 A 13.375 13.375 0 0 0 36.101 19.305 Q 33.747 19.305 32.471 19.767 A 3.551 3.551 0 0 0 31.851 20.055 A 2.435 2.435 0 0 0 30.742 21.558 Q 30.62 21.999 30.604 22.537 A 5.547 5.547 0 0 0 30.601 22.705 A 3.178 3.178 0 0 0 30.953 24.209 Q 31.27 24.811 31.873 25.275 A 4.25 4.25 0 0 0 32.051 25.405 Q 33.501 26.405 36.801 27.505 L 45.501 30.505 A 52.234 52.234 0 0 1 51.838 33.099 Q 57.693 35.991 60.951 39.855 A 19.951 19.951 0 0 1 65.119 48.429 A 29.08 29.08 0 0 1 65.801 54.905 A 29.945 29.945 0 0 1 64.836 62.738 A 20.644 20.644 0 0 1 57.251 74.105 A 27.846 27.846 0 0 1 48.992 78.313 Q 45.113 79.584 40.371 80.15 A 69.067 69.067 0 0 1 32.201 80.605 A 99.739 99.739 0 0 1 18.944 79.752 A 86.426 86.426 0 0 1 14.051 78.955 Q 6.122 77.425 1.59 75.507 A 26.83 26.83 0 0 1 0.901 75.205 Z M 479.301 75.205 L 479.301 55.405 L 501.301 55.405 Q 501.301 57.251 501.798 58.495 A 4.13 4.13 0 0 0 502.701 59.905 A 3.796 3.796 0 0 0 503.936 60.702 Q 505.112 61.195 506.951 61.285 A 17.472 17.472 0 0 0 507.801 61.305 Q 510.901 61.305 512.251 60.355 A 3.089 3.089 0 0 0 513.558 58.157 A 4.694 4.694 0 0 0 513.601 57.505 Q 513.601 55.905 512.301 54.755 Q 511.001 53.605 507.801 52.405 L 499.201 49.405 A 62.901 62.901 0 0 1 492.874 46.633 Q 486.586 43.423 483.251 39.505 A 19.366 19.366 0 0 1 479.33 31.827 Q 478.401 28.348 478.401 24.105 A 28.559 28.559 0 0 1 479.296 16.737 A 19.566 19.566 0 0 1 486.151 6.155 Q 493.092 0.647 508.333 0.072 A 97.313 97.313 0 0 1 512.001 0.005 A 76.853 76.853 0 0 1 523.467 0.832 A 66.083 66.083 0 0 1 528.351 1.755 A 57.245 57.245 0 0 1 533.648 3.22 Q 537.755 4.587 540.701 6.405 L 540.701 24.305 L 520.701 24.305 Q 520.701 19.766 515.592 19.347 A 13.375 13.375 0 0 0 514.501 19.305 Q 512.147 19.305 510.871 19.767 A 3.551 3.551 0 0 0 510.251 20.055 A 2.435 2.435 0 0 0 509.142 21.558 Q 509.02 21.999 509.004 22.537 A 5.547 5.547 0 0 0 509.001 22.705 A 3.178 3.178 0 0 0 509.353 24.209 Q 509.67 24.811 510.273 25.275 A 4.25 4.25 0 0 0 510.451 25.405 Q 511.901 26.405 515.201 27.505 L 523.901 30.505 A 52.234 52.234 0 0 1 530.238 33.099 Q 536.093 35.991 539.351 39.855 A 19.951 19.951 0 0 1 543.519 48.429 A 29.08 29.08 0 0 1 544.201 54.905 A 29.945 29.945 0 0 1 543.236 62.738 A 20.644 20.644 0 0 1 535.651 74.105 A 27.846 27.846 0 0 1 527.392 78.313 Q 523.513 79.584 518.771 80.15 A 69.067 69.067 0 0 1 510.601 80.605 A 99.739 99.739 0 0 1 497.344 79.752 A 86.426 86.426 0 0 1 492.451 78.955 Q 484.522 77.425 479.99 75.507 A 26.83 26.83 0 0 1 479.301 75.205 Z M 332.101 79.205 L 294.101 79.205 L 294.101 62.805 L 299.101 62.805 L 299.101 17.805 L 294.101 17.805 L 294.101 1.405 L 332.101 1.405 L 332.101 17.805 L 327.101 17.805 L 327.101 62.805 L 332.101 62.805 L 332.101 79.205 Z M 172.901 34.205 L 178.301 34.205 Q 180.328 34.205 181.646 33.448 A 4.295 4.295 0 0 0 182.651 32.655 A 4.704 4.704 0 0 0 183.617 31.035 Q 184.101 29.713 184.101 27.805 L 184.101 24.205 Q 184.101 22.188 183.56 20.825 A 4.622 4.622 0 0 0 182.651 19.355 Q 181.388 18.004 179.023 17.83 A 9.858 9.858 0 0 0 178.301 17.805 L 172.901 17.805 L 172.901 34.205 Z" vector-effect="non-scaling-stroke"/></g></svg>